HIERARCHY
ROOT Hips
{
	OFFSET 0.00000 0.00000 0.00000
	CHANNELS 6 Xposition Yposition Zposition Zrotation Yrotation Xrotation 
	JOINT LHipJoint
	{
		OFFSET 0 0 0
		CHANNELS 3 Zrotation Yrotation Xrotation
		JOINT LeftHip
		{
			OFFSET 1.39187 -1.60231 0.69152
			CHANNELS 3 Zrotation Yrotation Xrotation
			JOINT LeftKnee
			{
				OFFSET 2.43314 -6.68499 0.00000
				CHANNELS 3 Zrotation Yrotation Xrotation
				JOINT LeftAnkle
				{
					OFFSET 2.32059 -6.37578 0.00000
					CHANNELS 3 Zrotation Yrotation Xrotation
					JOINT LeftToe
					{
						OFFSET 0.23021 -0.63250 1.71305
						CHANNELS 3 Zrotation Yrotation Xrotation
						End Site
						{
							OFFSET 0.00000 -0.00000 0.91647
						}
					}
				}
			}
		}
	}
	JOINT RHipJoint
	{
		OFFSET 0 0 0
		CHANNELS 3 Zrotation Yrotation Xrotation
		JOINT RightHip
		{
			OFFSET -1.19407 -1.60231 0.69152
			CHANNELS 3 Zrotation Yrotation Xrotation
			JOINT RightKnee
			{
				OFFSET -2.44411 -6.71513 0.00000
				CHANNELS 3 Zrotation Yrotation Xrotation
				JOINT RightAnkle
				{
					OFFSET -2.31924 -6.37207 0.00000
					CHANNELS 3 Zrotation Yrotation Xrotation
					JOINT RightToe
					{
						OFFSET -0.19473 -0.53502 1.87724
						CHANNELS 3 Zrotation Yrotation Xrotation
						End Site
						{
							OFFSET -0.00000 -0.00000 0.98293
						}
					}
				}
			}
		}
	}
	JOINT lowerback
	{
		OFFSET 0 0 0
		CHANNELS 3 Zrotation Yrotation Xrotation
		JOINT Chest
		{
			OFFSET -0.01120 1.87307 0.09613
			CHANNELS 3 Zrotation Yrotation Xrotation
			JOINT Chest2
			{
				OFFSET 0.01099 1.87818 0.04834
				CHANNELS 3 Zrotation Yrotation Xrotation
				JOINT lowerneck
				{
					OFFSET 0 0 0
					CHANNELS 3 Zrotation Yrotation Xrotation
					JOINT Neck
					{
						OFFSET 0.01702 1.40324 -0.12579
						CHANNELS 3 Zrotation Yrotation Xrotation
						JOINT Head
						{
							OFFSET -0.04239 1.38587 -0.01614
							CHANNELS 3 Zrotation Yrotation Xrotation
							End Site
							{
								OFFSET -0.02510 1.47031 -0.00154
							}
						}
					}
				}
				JOINT LeftCollar
				{
					OFFSET 0 0 0
					CHANNELS 3 Zrotation Yrotation Xrotation
					JOINT LeftShoulder
					{
						OFFSET 2.95699 0.62343 0.11653
CHANNELS 3 Zrotation Xrotation Yrotation
						JOINT LeftElbow
						{
OFFSET 0 -4.683820 -0.000000
CHANNELS 3 Zrotation Xrotation Yrotation
							JOINT LeftWrist
							{
OFFSET 0 -2.981240 -0.000000
CHANNELS 3 Zrotation Xrotation Yrotation
								JOINT lhand
								{
									OFFSET 0 0 0
CHANNELS 3 Zrotation Xrotation Yrotation
									JOINT LFingers
									{
OFFSET 0 -0.707590 0.000000
CHANNELS 3 Zrotation Xrotation Yrotation
										End Site
										{
OFFSET 0 -0.570480 0.000000
										}
									}
								}
								JOINT LThumb
								{
OFFSET 0 0.000000 0.000000
CHANNELS 3 Zrotation Xrotation Yrotation
									End Site
									{
OFFSET 0 -0.579190 0.579190
									}
								}
							}
						}
					}
				}
				JOINT RightCollar
				{
					OFFSET 0 0 0
					CHANNELS 3 Zrotation Yrotation Xrotation
					JOINT RightShoulder
					{
						OFFSET -2.99027 0.88714 -0.02793
CHANNELS 3 Zrotation Xrotation Yrotation
						JOINT RightElbow
						{
OFFSET 0 -4.758760 -0.000000
CHANNELS 3 Zrotation Xrotation Yrotation
							JOINT RightWrist
							{
OFFSET 0 -2.932930 -0.000000
CHANNELS 3 Zrotation Xrotation Yrotation
								JOINT rhand
								{
									OFFSET 0 0 0
CHANNELS 3 Zrotation Xrotation Yrotation
									JOINT RFingers
									{
OFFSET 0 -0.831750 0.000000
CHANNELS 3 Zrotation Xrotation Yrotation
										End Site
										{
OFFSET 0 -0.670580 0.000000
										}
									}
								}
								JOINT RThumb
								{
OFFSET 0 0.000000 0.000000
CHANNELS 3 Zrotation Xrotation Yrotation
									End Site
									{
OFFSET 0 -0.680820 0.680820
									}
								}
							}
						}
					}
				}
			}
		}
	}
}
MOTION
Frames: 4
Frame Time: 0.008333333333333333
-29.322300 16.204600 0.076100 -31.037800 86.823500 -10.287900 0.000000 0.000000 0.000000 -18.156500 -18.272900 -26.114700 2.941100 10.599200 30.939600 1.922000 0.005400 -26.255400 0.266400 3.320600 9.172600 0.000000 0.000000 0.000000 16.396100 17.906700 -23.040000 -2.281300 -9.429000 27.146800 0.227100 -14.793000 -18.343500 -0.480900 4.446900 -12.337400 -4.846900 -0.697100 -10.964000 1.006000 -0.344500 -1.937500 3.740700 -0.212600 4.157800 -5.569600 -1.523700 -0.675700 5.084000 -2.140200 11.475800 2.641300 -1.013700 4.045700 0.000000 0.000000 0.000000 -4.766300 8.422500 20.484300 9.163800 -15.421100 1.243300 7.236900 41.753500 -21.198800 0.000000 0.000000 0.000000 -7.125000 0.000000 0.000000 -21.163500 50.103400 2.771600 0.000000 0.000000 0.000000 2.724000 7.219500 4.244900 -13.539300 -22.072300 -2.652500 -15.588800 9.717000 -8.511600 0.000000 0.000000 0.000000 7.125000 0.000000 -0.000000 8.144400 21.184700 4.697600
-29.301904 16.201609 0.069573 -30.006372 86.996644 -9.272336 0.000000 0.000000 0.000000 -18.333814 -18.348594 -26.020423 2.951162 10.615608 30.994263 1.933966 -0.093319 -26.305077 0.290060 3.463194 9.571012 0.000000 0.000000 0.000000 16.253506 17.891199 -23.089495 -2.325991 -9.514303 27.417937 0.245593 -15.010472 -18.463703 -0.484254 4.462129 -12.380550 -4.871285 -0.743785 -10.944329 0.891236 -0.399435 -1.922180 3.625845 -0.240249 4.167953 -5.563798 -1.478193 -0.737524 5.237110 -2.091792 11.617034 2.698320 -0.981338 4.108793 0.000000 0.000000 0.000000 -4.658335 8.797977 20.500436 9.173318 -15.436239 1.245838 7.259019 42.071141 -21.461688 0.000000 0.000000 0.000000 -7.125000 0.000000 0.000000 -21.270378 50.351693 2.920993 0.000000 0.000000 0.000000 2.821722 7.228474 3.802976 -13.391267 -21.857729 -2.597203 -15.489356 10.115955 -8.455578 0.000000 0.000000 0.000000 7.125000 0.000000 0.000000 8.217555 21.246977 4.728965
-29.282483 16.196503 0.058249 -30.655785 86.982873 -9.720373 0.000000 0.000000 0.000000 -18.275432 -18.517704 -26.222980 2.979274 10.661447 31.146325 1.945851 0.028697 -26.426299 0.287378 3.447493 9.527139 0.000000 0.000000 0.000000 16.206279 17.771143 -23.466557 -2.365153 -9.588386 27.653871 0.195629 -14.738180 -18.657729 -0.494112 4.506709 -12.506709 -4.678106 -0.735917 -11.124010 0.801269 -0.396970 -1.937267 3.422289 -0.236840 4.249652 -5.389539 -1.433255 -0.960245 5.316478 -2.054279 12.069819 2.488424 -0.932146 3.938793 0.000000 0.000000 0.000000 -4.536792 8.944507 21.186258 9.114462 -15.342595 1.230246 7.038369 42.662934 -21.654006 0.000000 0.000000 0.000000 -7.125000 0.000000 0.000000 -21.570592 50.496245 3.045101 0.000000 0.000000 0.000000 2.936273 7.163220 3.359426 -13.251364 -21.654296 -2.545320 -15.484954 10.553611 -8.403458 0.000000 0.000000 0.000000 7.125000 0.000000 0.000000 8.222173 21.300637 4.721549
-29.259432 16.189428 0.046158 -32.158936 86.943365 -11.275916 0.000000 0.000000 0.000000 -18.263772 -18.609413 -26.101487 3.002769 10.699518 31.272964 1.957078 0.224952 -26.567909 0.271881 3.353580 9.264758 0.000000 0.000000 0.000000 16.306226 17.477097 -23.571599 -2.411163 -9.674418 27.928784 0.125706 -14.365894 -18.944861 -0.506230 4.560851 -12.660186 -4.445734 -0.697815 -11.044271 0.724154 -0.374881 -1.887855 3.212923 -0.224103 4.253378 -5.226776 -1.357947 -1.078643 5.204822 -1.936927 11.880844 2.561121 -0.881882 4.123702 0.000000 0.000000 0.000000 -4.415702 9.053989 21.901454 9.049469 -15.239177 1.213073 6.905865 43.074564 -21.719126 0.000000 0.000000 0.000000 -7.125000 0.000000 0.000000 -21.726250 50.536048 3.090751 0.000000 0.000000 0.000000 3.030311 7.080148 2.946701 -13.093544 -21.424011 -2.487427 -15.487595 10.945349 -8.364882 0.000000 0.000000 0.000000 7.125000 0.000000 0.000000 8.221356 21.340065 4.713704
